<?xml version="1.0" encoding="UTF-8" standalone="no"?>
<svg
   id="Calque_1"
   data-name="Calque 1"
   viewBox="0 0 496.06 170.08"
   version="1.1"
   sodipodi:docname="logoblanc.svg"
   inkscape:version="1.3 (0e150ed6c4, 2023-07-21)"
   xmlns:inkscape="http://www.inkscape.org/namespaces/inkscape"
   xmlns:sodipodi="http://sodipodi.sourceforge.net/DTD/sodipodi-0.dtd"
   xmlns="http://www.w3.org/2000/svg"
   xmlns:svg="http://www.w3.org/2000/svg">
  <sodipodi:namedview
     id="namedview63"
     pagecolor="#ffffff"
     bordercolor="#000000"
     borderopacity="0.25"
     inkscape:showpageshadow="2"
     inkscape:pageopacity="0.0"
     inkscape:pagecheckerboard="0"
     inkscape:deskcolor="#d1d1d1"
     inkscape:zoom="1.8559308"
     inkscape:cx="260.78558"
     inkscape:cy="148.98185"
     inkscape:window-width="1920"
     inkscape:window-height="974"
     inkscape:window-x="-11"
     inkscape:window-y="-11"
     inkscape:window-maximized="1"
     inkscape:current-layer="Calque_1" />
  <defs
     id="defs1">
    <style
       id="style1">.cls-1{fill:#0070ba;}.cls-2{fill:#1d1d1b;}.cls-3{fill:#fbba00;}.cls-4{fill:#0bbbef;}.cls-5{fill:#fff;}</style>
  </defs>
  <g
     id="g3546-0-6-0-2"
     style="fill:#ffffff">
    <g
       id="path3548-3-8-4-9"
       style="fill:#ffffff">
      <path
         class="cls-1"
         d="M153.75,85.07a85.2,85.2,0,0,1,1.54-16.65,79,79,0,0,1,4.65-15.26,110.55,110.55,0,0,1,7.71-15,55.23,55.23,0,0,1,4.66-6.63c1.22-1.48,2.49-3,4.26-3,1.93,0,2.89.52,2.89,1.59a47.41,47.41,0,0,1-2.71,6.39Q174,42.3,171.66,48.71a114.19,114.19,0,0,0-4.42,16,97.66,97.66,0,0,0-2,20.33,97.57,97.57,0,0,0,2,20.1,113.74,113.74,0,0,0,4.94,16.43c1.7,4.64,3,8.79,4.75,12.46a46.61,46.61,0,0,1,2.56,6c0,1.06-1,1.59-2.89,1.59s-3-1.8-4.26-3.18a51.75,51.75,0,0,1-4.66-6.6,119.31,119.31,0,0,1-7.68-15,79.26,79.26,0,0,1-4.63-15,83.77,83.77,0,0,1-1.59-16.79"
         id="path1"
         style="fill:#ffffff" />
    </g>
  </g>
  <g
     id="g4276-5-7-2"
     style="fill:#ffffff">
    <g
       id="text3345-5-85-6-9-3-2"
       style="fill:#ffffff">
      <g
         id="path7479"
         style="fill:#ffffff">
        <path
           class="cls-2"
           d="M200.14,114.63h-2.59l-5,14.85h1.94l1.2-3.56H202l1.22,3.56h1.94l-5-14.85m1.35,9.62h-5.3l2.65-8.23,2.65,8.23"
           id="path2"
           style="fill:#ffffff" />
      </g>
      <g
         id="path7481"
         style="fill:#ffffff">
        <path
           class="cls-2"
           d="M209.42,129.48V118.62h-1.88v10.86h1.88m0-12.6v-2.7h-1.88v2.7h1.88"
           id="path3"
           style="fill:#ffffff" />
      </g>
      <g
         id="path7483"
         style="fill:#ffffff">
        <path
           class="cls-2"
           d="M213.59,129.48l2.61-4,2.62,4h2l-3.6-5.46,3.53-5.4h-1.94l-2.58,4-2.6-4h-1.93l3.5,5.4-3.57,5.46h2"
           id="path4"
           style="fill:#ffffff" />
      </g>
    </g>
    <g
       id="text3345-5-8-4-1-5-8-8"
       style="fill:#ffffff">
      <g
         id="path7486"
         style="fill:#ffffff">
        <path
           class="cls-2"
           d="M239.78,127.56h2.59l3.8-10.12.29,12h1.85l-.52-14.85h-2.43l-4.28,11.49-4.28-11.49h-2.43l-.51,14.85h1.85l.29-12,3.78,10.12"
           id="path5"
           style="fill:#ffffff" />
      </g>
      <g
         id="path7488"
         style="fill:#ffffff">
        <path
           class="cls-2"
           d="M258.57,121.92c0-2.32-1-3.52-4.12-3.52a15.23,15.23,0,0,0-3.57.47l.2,1.49a17.86,17.86,0,0,1,3.26-.36c1.76,0,2.36.47,2.36,1.83v1.7h-2.9c-2.18,0-3.32.8-3.32,3,0,1.92.85,3.12,2.88,3.12a6.15,6.15,0,0,0,3.52-1l.12.8h1.57v-7.56m-1.87,5.29a5.45,5.45,0,0,1-2.81.89c-1.34,0-1.54-.45-1.54-1.56s.43-1.45,1.59-1.45h2.76v2.12"
           id="path6"
           style="fill:#ffffff" />
      </g>
      <g
         id="path7490"
         style="fill:#ffffff">
        <path
           class="cls-2"
           d="M266.23,118.4a13.27,13.27,0,0,0-3,1.74l-.11-1.52h-1.63v10.86h1.87V122a22.77,22.77,0,0,1,3.1-1.87l-.25-1.72"
           id="path7"
           style="fill:#ffffff" />
      </g>
      <g
         id="path7492"
         style="fill:#ffffff">
        <path
           class="cls-2"
           d="M275,126.56c0-2.16-.24-2.54-3.36-3.32-1.83-.45-1.86-.67-1.86-1.88,0-1,.23-1.36,1.83-1.36a17.3,17.3,0,0,1,3,.32l.14-1.54a12,12,0,0,0-3.08-.38c-2.85,0-3.74.91-3.74,2.92,0,2.25.24,2.81,2.94,3.48,2.19.53,2.27.67,2.27,1.83s-.29,1.47-2,1.47a12.37,12.37,0,0,1-3.11-.45l-.24,1.47a11,11,0,0,0,3.46.58c3.1,0,3.74-1,3.74-3.14"
           id="path8"
           style="fill:#ffffff" />
      </g>
      <g
         id="path7494"
         style="fill:#ffffff">
        <path
           class="cls-2"
           d="M279.1,125.69v-.91h6.47V122.5c0-2.25-.87-4.1-4.08-4.1s-4.26,1.8-4.26,4.06v3.25c0,2.46,1.09,4,4.3,4a11.79,11.79,0,0,0,3.84-.62l-.25-1.5a13.42,13.42,0,0,1-3.43.52c-2.12,0-2.59-.69-2.59-2.41m0-3.36c0-1.52.63-2.37,2.39-2.37s2.28.85,2.28,2.37v.88H279.1v-.88"
           id="path9"
           style="fill:#ffffff" />
      </g>
      <g
         id="path7496"
         style="fill:#ffffff">
        <path
           class="cls-2"
           d="M290,129.48V118.62H288.1v10.86H290m0-12.6v-2.7H288.1v2.7H290"
           id="path10"
           style="fill:#ffffff" />
      </g>
      <g
         id="path7498"
         style="fill:#ffffff">
        <path
           class="cls-2"
           d="M295.34,129.48V113.92l-1.88.26v15.3h1.88"
           id="path11"
           style="fill:#ffffff" />
      </g>
      <g
         id="path7500"
         style="fill:#ffffff">
        <path
           class="cls-2"
           d="M300.76,129.48V113.92l-1.87.26v15.3h1.87"
           id="path12"
           style="fill:#ffffff" />
      </g>
      <g
         id="path7502"
         style="fill:#ffffff">
        <path
           class="cls-2"
           d="M305,125.69v-.91h6.47V122.5c0-2.25-.87-4.1-4.08-4.1s-4.26,1.8-4.26,4.06v3.25c0,2.46,1.09,4,4.31,4a11.78,11.78,0,0,0,3.83-.62l-.25-1.5a13.42,13.42,0,0,1-3.43.52c-2.12,0-2.59-.69-2.59-2.41m0-3.36c0-1.52.63-2.37,2.39-2.37s2.28.85,2.28,2.37v.88H305v-.88"
           id="path13"
           style="fill:#ffffff" />
      </g>
      <g
         id="path7504"
         style="fill:#ffffff">
        <path
           class="cls-2"
           d="M327.09,114.63V125.2c0,1.83-1,2.79-3.35,2.79s-3.33-1-3.33-2.79V114.63h-1.93v10.68c0,2.43,1.4,4.39,5.26,4.39s5.27-2,5.27-4.39V114.63h-1.92"
           id="path14"
           style="fill:#ffffff" />
      </g>
      <g
         id="path7506"
         style="fill:#ffffff">
        <path
           class="cls-2"
           d="M340.67,129.48v-8.31c0-1.68-.63-2.77-2.36-2.77a11.78,11.78,0,0,0-4.37,1.16l-.18-.94h-1.52v10.86h1.88v-8.2a10,10,0,0,1,3.62-1.1c.7,0,1.05.29,1.05,1v8.29h1.88"
           id="path15"
           style="fill:#ffffff" />
      </g>
      <g
         id="path7508"
         style="fill:#ffffff">
        <path
           class="cls-2"
           d="M345.65,129.48V118.62h-1.87v10.86h1.87m0-12.6v-2.7h-1.87v2.7h1.87"
           id="path16"
           style="fill:#ffffff" />
      </g>
      <g
         id="path7510"
         style="fill:#ffffff">
        <path
           class="cls-2"
           d="M352.11,127.94l-3-9.32h-1.85l3.59,10.86h2.49l3.6-10.86H355.1l-3,9.32"
           id="path17"
           style="fill:#ffffff" />
      </g>
      <g
         id="path7512"
         style="fill:#ffffff">
        <path
           class="cls-2"
           d="M359.86,125.69v-.91h6.46V122.5c0-2.25-.86-4.1-4.07-4.1s-4.26,1.8-4.26,4.06v3.25c0,2.46,1.09,4,4.3,4a11.78,11.78,0,0,0,3.83-.62l-.25-1.5a13.34,13.34,0,0,1-3.42.52c-2.12,0-2.59-.69-2.59-2.41m0-3.36c0-1.52.62-2.37,2.39-2.37s2.27.85,2.27,2.37v.88h-4.66v-.88"
           id="path18"
           style="fill:#ffffff" />
      </g>
      <g
         id="path7514"
         style="fill:#ffffff">
        <path
           class="cls-2"
           d="M373.64,118.4a13.42,13.42,0,0,0-3,1.74l-.11-1.52h-1.62v10.86h1.87V122a22.77,22.77,0,0,1,3.1-1.87l-.24-1.72"
           id="path19"
           style="fill:#ffffff" />
      </g>
      <g
         id="path7516"
         style="fill:#ffffff">
        <path
           class="cls-2"
           d="M382.19,126.56c0-2.16-.25-2.54-3.36-3.32-1.83-.45-1.86-.67-1.86-1.88,0-1,.23-1.36,1.83-1.36a17.2,17.2,0,0,1,3,.32l.13-1.54a12,12,0,0,0-3.07-.38c-2.85,0-3.75.91-3.75,2.92,0,2.25.25,2.81,2.95,3.48,2.18.53,2.27.67,2.27,1.83s-.29,1.47-2,1.47a12.37,12.37,0,0,1-3.11-.45l-.24,1.47a11,11,0,0,0,3.46.58c3.09,0,3.74-1,3.74-3.14"
           id="path20"
           style="fill:#ffffff" />
      </g>
      <g
         id="path7518"
         style="fill:#ffffff">
        <path
           class="cls-2"
           d="M386.75,129.48V118.62h-1.87v10.86h1.87m0-12.6v-2.7h-1.87v2.7h1.87"
           id="path21"
           style="fill:#ffffff" />
      </g>
      <g
         id="path7520"
         style="fill:#ffffff">
        <path
           class="cls-2"
           d="M395.39,127.85a6.78,6.78,0,0,1-1.73.27c-1,0-1.12-.4-1.12-1.2v-6.74h2.92l.16-1.56h-3.08v-2.94l-1.87.27v2.67h-1.92v1.56h1.92v7c0,1.81.87,2.47,2.7,2.47a6.74,6.74,0,0,0,2.28-.4l-.26-1.45"
           id="path22"
           style="fill:#ffffff" />
      </g>
      <g
         id="path7522"
         style="fill:#ffffff">
        <path
           class="cls-2"
           d="M399.17,125.69v-.91h6.47V122.5c0-2.25-.87-4.1-4.08-4.1s-4.25,1.8-4.25,4.06v3.25c0,2.46,1.08,4,4.3,4a11.82,11.82,0,0,0,3.83-.62l-.25-1.5a13.35,13.35,0,0,1-3.43.52c-2.12,0-2.59-.69-2.59-2.41m0-3.36c0-1.52.63-2.37,2.39-2.37s2.28.85,2.28,2.37v.88h-4.67v-.88m1.75-5a24.77,24.77,0,0,0,3.1-1.94l-.81-1.25a23.19,23.19,0,0,1-3.06,2l.77,1.16"
           id="path23"
           style="fill:#ffffff" />
      </g>
    </g>
    <path
       class="cls-3"
       d="M231.24,126l-2.94-1.69-.14-.08.14-.08,2.94-1.69a.46.46,0,0,0,.19-.3,1.05,1.05,0,0,0,0-.3c0-.12,0-.21,0-.22v-.07l-.05,0a1.38,1.38,0,0,0-.64-.27.31.31,0,0,0-.18,0L227.63,123l-.14.08v-6.32a.6.6,0,0,0-.33-.45l-.27-.15-.08,0-.06,0-.27.15a.6.6,0,0,0-.33.45v6.32L226,123l-2.94-1.69a.36.36,0,0,0-.19,0,1.27,1.27,0,0,0-.63.27l-.06,0v.07s0,.1,0,.22a1.6,1.6,0,0,0,0,.3.47.47,0,0,0,.2.3l2.94,1.69a.57.57,0,0,0,.13.08l-.13.08L222.41,126a.47.47,0,0,0-.2.3,1.6,1.6,0,0,0,0,.3c0,.12,0,.22,0,.22v.08l.06,0a1.33,1.33,0,0,0,.63.27h0a.45.45,0,0,0,.18,0l2.94-1.7.13-.08V129c0,.24.2.34.33.44a1.26,1.26,0,0,0,.28.14l.07,0,.06,0a1.09,1.09,0,0,0,.27-.14.6.6,0,0,0,.33-.44v-3.56l.13.08,2.95,1.7a.3.3,0,0,0,.18,0,1.38,1.38,0,0,0,.64-.27l.05,0v-.08s0-.1,0-.22a1.05,1.05,0,0,0,0-.3A.46.46,0,0,0,231.24,126Z"
       id="path24"
       style="fill:#ffffff" />
  </g>
  <g
     id="path7525"
     style="fill:#ffffff">
    <path
       class="cls-4"
       d="M197.85,47.78h-2.76V69.1h2.76V47.78"
       id="path25"
       style="fill:#ffffff" />
  </g>
  <g
     id="path7527"
     style="fill:#ffffff">
    <path
       class="cls-4"
       d="M215.38,69.1V57.16c0-2.4-.9-4-3.4-4a16.94,16.94,0,0,0-6.27,1.66l-.26-1.34h-2.18V69.1H206V57.32a14.67,14.67,0,0,1,5.22-1.57c1,0,1.5.42,1.5,1.44V69.1h2.7"
       id="path26"
       style="fill:#ffffff" />
  </g>
  <g
     id="path7529"
     style="fill:#ffffff">
    <path
       class="cls-4"
       d="M230,64.9c0-3.1-.36-3.64-4.83-4.76-2.63-.64-2.66-1-2.66-2.69,0-1.41.33-2,2.62-2a25.63,25.63,0,0,1,4.32.44l.19-2.2a17.13,17.13,0,0,0-4.41-.55c-4.09,0-5.37,1.31-5.37,4.2,0,3.23.35,4,4.22,5,3.13.77,3.26,1,3.26,2.62s-.42,2.11-2.88,2.11a17.82,17.82,0,0,1-4.44-.63l-.36,2.11a16.26,16.26,0,0,0,5,.82c4.45,0,5.37-1.46,5.37-4.51"
       id="path27"
       style="fill:#ffffff" />
  </g>
  <g
     id="path7531"
     style="fill:#ffffff">
    <path
       class="cls-4"
       d="M242.18,66.76a9.74,9.74,0,0,1-2.49.39c-1.44,0-1.61-.58-1.61-1.73V55.75h4.2l.23-2.24h-4.43V49.29l-2.68.38v3.84h-2.75v2.24h2.75V65.87c0,2.59,1.25,3.54,3.87,3.54a9.55,9.55,0,0,0,3.27-.57l-.36-2.08"
       id="path28"
       style="fill:#ffffff" />
  </g>
  <g
     id="path7533"
     style="fill:#ffffff">
    <path
       class="cls-4"
       d="M248.91,69.1V53.51h-2.69V69.1h2.69m0-18.09V47.14h-2.69V51h2.69"
       id="path29"
       style="fill:#ffffff" />
  </g>
  <g
     id="path7535"
     style="fill:#ffffff">
    <path
       class="cls-4"
       d="M261.81,66.76a9.68,9.68,0,0,1-2.49.39c-1.44,0-1.61-.58-1.61-1.73V55.75h4.2l.22-2.24h-4.42V49.29l-2.68.38v3.84h-2.75v2.24H255V65.87c0,2.59,1.25,3.54,3.87,3.54a9.51,9.51,0,0,0,3.27-.57l-.36-2.08"
       id="path30"
       style="fill:#ffffff" />
  </g>
  <g
     id="path7537"
     style="fill:#ffffff">
    <path
       class="cls-4"
       d="M265.69,53.51V65.45c0,2.4.89,4,3.39,4a16.79,16.79,0,0,0,6.28-1.66l.25,1.35h2.18V53.51H275.1V65.29a14.62,14.62,0,0,1-5.22,1.57c-1,0-1.5-.42-1.5-1.44V53.51h-2.69"
       id="path31"
       style="fill:#ffffff" />
  </g>
  <g
     id="path7539"
     style="fill:#ffffff">
    <path
       class="cls-4"
       d="M290.7,66.76a9.87,9.87,0,0,1-2.5.39c-1.45,0-1.6-.58-1.6-1.73V55.75h4.2l.21-2.24H286.6V49.29l-2.69.38v3.84h-2.75v2.24h2.75V65.87c0,2.59,1.24,3.54,3.87,3.54a9.55,9.55,0,0,0,3.27-.57l-.35-2.08"
       id="path32"
       style="fill:#ffffff" />
  </g>
  <g
     id="path7541"
     style="fill:#ffffff">
    <path
       class="cls-4"
       d="M314,47.78V63c0,2.63-1.44,4-4.8,4s-4.8-1.38-4.8-4V47.78h-2.75V63.11c0,3.49,2,6.3,7.55,6.3s7.55-2.81,7.55-6.3V47.78H314"
       id="path33"
       style="fill:#ffffff" />
  </g>
  <g
     id="path7543"
     style="fill:#ffffff">
    <path
       class="cls-4"
       d="M334,69.1V57.16c0-2.4-.9-4-3.39-4a16.89,16.89,0,0,0-6.27,1.66L324,53.51h-2.18V69.1h2.69V57.32a14.62,14.62,0,0,1,5.22-1.57c1,0,1.5.42,1.5,1.44V69.1H334"
       id="path34"
       style="fill:#ffffff" />
  </g>
  <g
     id="path7545"
     style="fill:#ffffff">
    <path
       class="cls-4"
       d="M341.62,69.1V53.51h-2.69V69.1h2.69m0-18.09V47.14h-2.69V51h2.69"
       id="path35"
       style="fill:#ffffff" />
  </g>
  <g
     id="path7547"
     style="fill:#ffffff">
    <path
       class="cls-4"
       d="M351.38,66.89,347.1,53.51h-2.66l5.15,15.59h3.59l5.15-15.59h-2.66l-4.29,13.38"
       id="path36"
       style="fill:#ffffff" />
  </g>
  <g
     id="path7549"
     style="fill:#ffffff">
    <path
       class="cls-4"
       d="M363,63.66V62.35h9.28V59.08c0-3.23-1.25-5.89-5.86-5.89s-6.11,2.59-6.11,5.83v4.67c0,3.52,1.57,5.72,6.18,5.72a17,17,0,0,0,5.5-.89l-.35-2.14a19.69,19.69,0,0,1-4.93.73c-3,0-3.71-1-3.71-3.45m0-4.84c0-2.17.9-3.39,3.42-3.39s3.27,1.22,3.27,3.39V60.1H363V58.82"
       id="path37"
       style="fill:#ffffff" />
  </g>
  <g
     id="path7551"
     style="fill:#ffffff">
    <path
       class="cls-4"
       d="M383.28,53.19a20.06,20.06,0,0,0-4.29,2.5l-.16-2.18H376.5V69.1h2.68V58.34a34.66,34.66,0,0,1,4.46-2.68l-.36-2.47"
       id="path38"
       style="fill:#ffffff" />
  </g>
  <g
     id="path7553"
     style="fill:#ffffff">
    <path
       class="cls-4"
       d="M396.08,64.9c0-3.1-.36-3.64-4.85-4.76-2.61-.64-2.65-1-2.65-2.69,0-1.41.32-2,2.63-2a25.73,25.73,0,0,1,4.32.44l.19-2.2a17.2,17.2,0,0,0-4.42-.55c-4.09,0-5.37,1.31-5.37,4.2,0,3.23.35,4,4.23,5,3.13.77,3.25,1,3.25,2.62s-.41,2.11-2.87,2.11a18,18,0,0,1-4.45-.63l-.35,2.11a16.14,16.14,0,0,0,5,.82c4.44,0,5.38-1.46,5.38-4.51"
       id="path39"
       style="fill:#ffffff" />
  </g>
  <g
     id="path7555"
     style="fill:#ffffff">
    <path
       class="cls-4"
       d="M403.13,69.1V53.51h-2.69V69.1h2.69m0-18.09V47.14h-2.69V51h2.69"
       id="path40"
       style="fill:#ffffff" />
  </g>
  <g
     id="path7557"
     style="fill:#ffffff">
    <path
       class="cls-4"
       d="M416,66.76a9.87,9.87,0,0,1-2.5.39c-1.44,0-1.61-.58-1.61-1.73V55.75h4.2l.22-2.24h-4.42V49.29l-2.68.38v3.84H406.5v2.24h2.75V65.87c0,2.59,1.25,3.54,3.87,3.54a9.59,9.59,0,0,0,3.27-.57L416,66.76"
       id="path41"
       style="fill:#ffffff" />
  </g>
  <g
     id="path7559"
     style="fill:#ffffff">
    <path
       class="cls-4"
       d="M431.12,58.25c0-3.33-1.48-5.06-5.93-5.06a22.21,22.21,0,0,0-5.12.67l.29,2.15A25.48,25.48,0,0,1,425,55.5c2.53,0,3.39.67,3.39,2.62v2.43h-4.15c-3.14,0-4.78,1.16-4.78,4.39,0,2.75,1.22,4.47,4.13,4.47A8.88,8.88,0,0,0,428.68,68l.17,1.15h2.27V58.25m-2.7,7.58a7.73,7.73,0,0,1-4,1.28c-1.92,0-2.21-.63-2.21-2.23s.61-2.09,2.27-2.09h4v3"
       id="path42"
       style="fill:#ffffff" />
  </g>
  <g
     id="path7561"
     style="fill:#ffffff">
    <path
       class="cls-4"
       d="M438.51,69.1V53.51h-2.69V69.1h2.69m0-18.09V47.14h-2.69V51h2.69"
       id="path43"
       style="fill:#ffffff" />
  </g>
  <g
     id="path7563"
     style="fill:#ffffff">
    <path
       class="cls-4"
       d="M450.43,53.19a19.66,19.66,0,0,0-4.3,2.5L446,53.51h-2.33V69.1h2.68V58.34a34.54,34.54,0,0,1,4.45-2.68l-.34-2.47"
       id="path44"
       style="fill:#ffffff" />
  </g>
  <g
     id="path7565"
     style="fill:#ffffff">
    <path
       class="cls-4"
       d="M455.53,63.66V62.35h9.28V59.08c0-3.23-1.24-5.89-5.85-5.89s-6.12,2.59-6.12,5.83v4.67c0,3.52,1.57,5.72,6.18,5.72a17,17,0,0,0,5.5-.89l-.35-2.14a19.76,19.76,0,0,1-4.93.73c-3.05,0-3.71-1-3.71-3.45m0-4.84c0-2.17.9-3.39,3.43-3.39s3.26,1.22,3.26,3.39V60.1h-6.69V58.82"
       id="path45"
       style="fill:#ffffff" />
  </g>
  <g
     id="path7567"
     style="fill:#ffffff">
    <path
       class="cls-4"
       d="M194.2,94.79c0,3.13,1.47,4.77,4.54,4.77a8.32,8.32,0,0,0,5.15-1.73l.23,1.41h2.27V76.9l-2.68.38v6.53a24.76,24.76,0,0,0-4.46-.48c-3.65,0-5.05,2-5.05,5.09v6.37m9.51.54a7.19,7.19,0,0,1-4.42,1.86c-1.89,0-2.41-.8-2.41-2.4V88.42c0-1.89.74-2.72,2.53-2.72a25,25,0,0,1,4.3.48v9.15"
       id="path46"
       style="fill:#ffffff" />
  </g>
  <g
     id="path7569"
     style="fill:#ffffff">
    <path
       class="cls-4"
       d="M213.41,93.8V92.49h9.29V89.22c0-3.24-1.25-5.89-5.86-5.89s-6.11,2.59-6.11,5.83v4.67c0,3.52,1.57,5.73,6.18,5.73a17,17,0,0,0,5.5-.9l-.35-2.14a19.72,19.72,0,0,1-4.93.74c-3,0-3.72-1-3.72-3.46m0-4.84c0-2.17.9-3.39,3.43-3.39s3.26,1.22,3.26,3.39v1.29h-6.69V89"
       id="path47"
       style="fill:#ffffff" />
  </g>
  <g
     id="path7571"
     style="fill:#ffffff">
    <path
       class="cls-4"
       d="M238.23,99.24H241V80.38h6.38V77.92h-15.5v2.46h6.37V99.24"
       id="path48"
       style="fill:#ffffff" />
  </g>
  <g
     id="path7573"
     style="fill:#ffffff">
    <path
       class="cls-4"
       d="M250.11,93.8V92.49h9.28V89.22c0-3.24-1.24-5.89-5.86-5.89s-6.1,2.59-6.1,5.83v4.67c0,3.52,1.56,5.73,6.17,5.73a17,17,0,0,0,5.5-.9l-.35-2.14a19.65,19.65,0,0,1-4.93.74c-3,0-3.71-1-3.71-3.46m0-4.84c0-2.17.9-3.39,3.42-3.39s3.27,1.22,3.27,3.39v1.29h-6.69V89"
       id="path49"
       style="fill:#ffffff" />
  </g>
  <g
     id="path7575"
     style="fill:#ffffff">
    <path
       class="cls-4"
       d="M268.84,99.56a14.7,14.7,0,0,0,3.75-.48l-.25-2.25a16.21,16.21,0,0,1-3.43.36c-2.69,0-3.58-.77-3.58-3.2V88.9c0-2.44.89-3.2,3.58-3.2a16.85,16.85,0,0,1,3.43.35l.22-2.24a14,14,0,0,0-3.72-.48c-4.86,0-6.2,2.08-6.2,5.67v4.89c0,3.59,1.22,5.67,6.2,5.67"
       id="path50"
       style="fill:#ffffff" />
  </g>
  <g
     id="path7577"
     style="fill:#ffffff">
    <path
       class="cls-4"
       d="M288.77,99.24V87.3c0-2.4-.9-4-3.4-4a15.92,15.92,0,0,0-6,1.63V76.9l-2.68.38v22h2.68V87.49a14.74,14.74,0,0,1,5.22-1.6c1,0,1.51.42,1.51,1.44V99.24h2.69"
       id="path51"
       style="fill:#ffffff" />
  </g>
  <g
     id="path7579"
     style="fill:#ffffff">
    <path
       class="cls-4"
       d="M305.83,99.24V87.3c0-2.4-.9-4-3.39-4A16.81,16.81,0,0,0,296.16,85l-.26-1.35h-2.17V99.24h2.69V87.46a14.41,14.41,0,0,1,5.22-1.57c1,0,1.5.42,1.5,1.44V99.24h2.69"
       id="path52"
       style="fill:#ffffff" />
  </g>
  <g
     id="path7581"
     style="fill:#ffffff">
    <path
       class="cls-4"
       d="M322.67,93.7V89.19c0-3.27-1.79-5.86-6.34-5.86S310,85.92,310,89.19V93.7c0,3.27,1.79,5.86,6.33,5.86s6.34-2.59,6.34-5.86M320,89.09V93.8c0,2.27-1.21,3.42-3.65,3.42s-3.65-1.15-3.65-3.42V89.09c0-2.27,1.22-3.42,3.65-3.42S320,86.82,320,89.09"
       id="path53"
       style="fill:#ffffff" />
  </g>
  <g
     id="path7583"
     style="fill:#ffffff">
    <path
       class="cls-4"
       d="M329.67,99.24V76.9l-2.68.38v22h2.68"
       id="path54"
       style="fill:#ffffff" />
  </g>
  <g
     id="path7585"
     style="fill:#ffffff">
    <path
       class="cls-4"
       d="M346.68,93.7V89.19c0-3.27-1.8-5.86-6.34-5.86S334,85.92,334,89.19V93.7c0,3.27,1.79,5.86,6.34,5.86s6.34-2.59,6.34-5.86M344,89.09V93.8c0,2.27-1.22,3.42-3.65,3.42s-3.65-1.15-3.65-3.42V89.09c0-2.27,1.22-3.42,3.65-3.42S344,86.82,344,89.09"
       id="path55"
       style="fill:#ffffff" />
  </g>
  <g
     id="path7587"
     style="fill:#ffffff">
    <path
       class="cls-4"
       d="M363.06,83.65h-4.48a10.33,10.33,0,0,0-2.62-.32c-4.46,0-6.09,2-6.09,5.35v.7a4.7,4.7,0,0,0,2.18,4.42,3.51,3.51,0,0,0-1.47,2.75c0,1.44.74,2.65,3,2.85l4.13.38c1.82.16,2.3.39,2.3,1.7,0,1.63-.39,2.18-4.35,2.18a25,25,0,0,1-5.22-.64l-.38,2.11a25,25,0,0,0,5.66.73c5.64,0,6.82-1.12,6.82-4.51,0-2.37-1.09-3.45-3.91-3.75-1.95-.19-2.78-.29-4.41-.44-.71-.07-1-.29-1-.9a2.46,2.46,0,0,1,1.12-1.67,11.39,11.39,0,0,0,1.61.1c4.06,0,6.11-2,6.11-5.31v-.7a5.51,5.51,0,0,0-.87-3.11l1.86-.35V83.65m-3.55,5.06v.67c0,2.05-1,3.11-3.55,3.11s-3.55-.74-3.55-3.11v-.67c0-2.31.95-3.17,3.55-3.17s3.55.9,3.55,3.17"
       id="path56"
       style="fill:#ffffff" />
  </g>
  <g
     id="path7589"
     style="fill:#ffffff">
    <path
       class="cls-4"
       d="M369.37,99.24V83.65h-2.69V99.24h2.69m0-18.08V77.28h-2.69v3.88h2.69"
       id="path57"
       style="fill:#ffffff" />
  </g>
  <g
     id="path7591"
     style="fill:#ffffff">
    <path
       class="cls-4"
       d="M376.39,93.8V92.49h9.28V89.22c0-3.24-1.25-5.89-5.86-5.89s-6.11,2.59-6.11,5.83v4.67c0,3.52,1.57,5.73,6.18,5.73a17,17,0,0,0,5.5-.9L385,96.52a19.79,19.79,0,0,1-4.93.74c-3,0-3.71-1-3.71-3.46m0-4.84c0-2.17.89-3.39,3.42-3.39s3.26,1.22,3.26,3.39v1.29h-6.68V89"
       id="path58"
       style="fill:#ffffff" />
  </g>
  <path
     id="path59"
     style="fill:#ffffff"
     class="cls-4"
     d="M 82.103516 48.613281 A 35.48 35.48 0 1 0 114.26953 91.660156 A 35.49 35.49 0 0 0 87.269531 49.359375 A 35.48 35.48 0 0 0 82.103516 48.613281 z M 59.839844 70.300781 L 59.839844 76 L 54.150391 76 L 54.150391 70.310547 L 59.839844 70.300781 z M 62.689453 70.310547 L 71.189453 70.310547 L 71.189453 85.689453 A 8 8 0 0 0 72.759766 91.119141 A 5.66 5.66 0 0 0 76.869141 93.230469 A 5.55 5.55 0 0 0 80.869141 91.230469 A 8.21 8.21 0 0 0 82.599609 85.580078 L 82.599609 70.380859 L 88.330078 70.380859 L 88.330078 85.380859 C 88.330078 89.620855 87.229998 92.960862 85 95.380859 A 9.64 9.64 0 0 1 77 99 C 73.240004 99 70.579295 97.780388 68.529297 95.400391 C 66.529299 93.040393 65.529297 89.659761 65.529297 85.259766 L 65.529297 76 L 62.689453 76 L 62.689453 70.310547 z M 91.140625 70.320312 L 105.38086 70.320312 L 105.38086 76 L 99.689453 76 L 99.689453 98.240234 L 94 98.240234 L 94 76 L 91.140625 76 L 91.140625 70.320312 z M 54.140625 78.839844 L 59.830078 78.839844 L 59.830078 98.169922 L 54.140625 98.169922 L 54.140625 78.839844 z " />
  <path
     class="cls-1"
     d="M79.74,140.48a56.5,56.5,0,0,1-12.29-1.35l1.76-7.95A48.3,48.3,0,0,0,90,36.85l1.76-8A56.46,56.46,0,0,1,79.74,140.48Z"
     id="path60"
     style="fill:#ffffff" />
  <path
     class="cls-1"
     d="M79.71,126.5a42.83,42.83,0,0,1-9.25-1l.76-3.41A39,39,0,0,0,88,46l.75-3.41a42.48,42.48,0,0,1-9.07,84Z"
     id="path61"
     style="fill:#ffffff" />
  <path
     class="cls-3"
     d="M69.19,131.23A48.36,48.36,0,0,1,90.05,36.79L88.8,42.47a42.54,42.54,0,0,0-18.35,83.08Z"
     id="path62"
     style="fill:#ffffff" />
  <g
     id="g10599-58-0-6-5-8-1-5-2"
     style="fill:#000000">
    <g
       id="path5480-2-9-1-9-7-3-53-52-2-3-0-9-7-3-6-0-6-3-8-2"
       style="fill:#000000" />
  </g>
</svg>
